<?xml version="1.0" standalone="no"?>
<!DOCTYPE svg PUBLIC "-//W3C//DTD SVG 20010904//EN"
 "http://www.w3.org/TR/2001/REC-SVG-20010904/DTD/svg10.dtd">
<svg version="1.0" xmlns="http://www.w3.org/2000/svg"
 width="5510.000000pt" height="5510.000000pt" viewBox="0 0 5510.000000 5510.000000"
 preserveAspectRatio="xMidYMid meet">
<metadata>
Created by potrace 1.14, written by Peter Selinger 2001-2017
</metadata>
<g transform="translate(0.000000,5510.000000) scale(0.100000,-0.100000)"
fill="#000000" stroke="none">
<path d="M3766 55089 c-184 -11 -365 -35 -562 -74 -622 -126 -1193 -394 -1706
-803 -171 -136 -474 -439 -610 -610 -535 -671 -826 -1433 -878 -2292 -14 -228
-14 -47292 0 -47520 13 -219 34 -379 75 -586 126 -622 394 -1193 803 -1706
136 -171 439 -474 610 -610 671 -535 1433 -826 2292 -878 228 -14 47292 -14
47520 0 871 52 1645 353 2322 902 145 118 438 411 556 556 549 677 850 1451
902 2322 14 228 14 47292 0 47520 -13 219 -34 379 -75 586 -126 622 -394 1193
-803 1706 -136 171 -439 474 -610 610 -671 535 -1433 826 -2292 878 -198 12
-47346 11 -47544 -1z m36424 -12559 c1448 -76 2697 -385 3840 -951 1548 -766
2729 -1888 3515 -3339 401 -739 685 -1609 815 -2492 128 -877 128 -1759 -1
-2473 -170 -943 -620 -2084 -1123 -2850 -279 -424 -674 -894 -1133 -1346 -330
-325 -576 -519 -866 -681 l-108 -61 102 -38 c642 -243 1421 -865 2094 -1674
579 -695 1156 -1627 1474 -2378 539 -1275 735 -2644 595 -4167 -128 -1405
-552 -2671 -1279 -3825 -382 -607 -862 -1181 -1410 -1688 -639 -590 -1442
-1125 -2255 -1502 -1808 -839 -3906 -1167 -6175 -964 -1358 121 -2603 440
-3735 956 -885 404 -1708 939 -2380 1549 -167 151 -521 510 -656 664 -1210
1384 -1884 3014 -2038 4930 -100 1235 23 2310 389 3415 241 725 560 1370 1020
2065 335 505 676 921 1120 1365 642 643 1241 1058 1821 1260 l95 33 -103 57
c-718 399 -1560 1257 -2224 2265 -467 710 -832 1548 -1009 2317 -154 672 -198
1428 -130 2223 127 1475 591 2727 1429 3854 746 1005 1699 1799 2901 2417
1219 627 2610 980 4160 1058 238 12 1032 12 1255 1z m-23250 -9550 c1089 -42
2037 -233 2952 -596 969 -384 1798 -921 2522 -1633 661 -652 1175 -1367 1610
-2241 656 -1320 997 -2721 1076 -4430 14 -300 14 -10128 0 -10311 -30 -390
-93 -683 -181 -847 -186 -348 -528 -526 -1144 -598 -189 -23 -808 -26 -980 -6
-572 67 -930 227 -1151 514 -147 191 -211 416 -266 938 -9 87 -13 1350 -19
5210 -4 2802 -10 5120 -14 5150 -3 30 -15 147 -26 259 -130 1345 -574 2483
-1302 3340 -189 222 -481 495 -733 684 -801 601 -1796 908 -3069 946 -1454 43
-2643 -258 -3662 -926 -466 -305 -918 -732 -1248 -1178 -338 -456 -618 -1004
-799 -1563 -145 -447 -247 -958 -290 -1447 -8 -93 -18 -192 -22 -220 -3 -27
-9 -2336 -13 -5130 -6 -4767 -8 -5089 -24 -5220 -63 -499 -164 -764 -366 -965
-301 -299 -791 -424 -1591 -407 -372 8 -623 43 -852 118 -317 103 -562 301
-686 553 -99 201 -159 517 -182 966 -13 265 -13 17225 0 17472 16 285 54 532
107 703 145 460 613 718 1408 775 493 35 1002 -10 1295 -116 336 -121 536
-304 659 -605 69 -170 98 -299 126 -564 22 -214 19 -398 -25 -1404 -22 -503
-39 -915 -37 -917 1 -2 25 34 52 79 390 645 974 1318 1586 1828 1038 865 2248
1440 3522 1674 543 99 1148 139 1767 115z"/>
<path d="M39170 39003 c-1454 -54 -2657 -502 -3510 -1307 -647 -611 -1080
-1420 -1244 -2326 -57 -315 -78 -568 -78 -930 0 -416 28 -715 102 -1080 248
-1220 948 -2219 2000 -2850 482 -289 1078 -514 1680 -634 752 -151 1628 -172
2409 -60 963 138 1793 483 2483 1032 170 135 493 458 632 632 486 609 785
1299 915 2115 72 456 80 1049 21 1522 -161 1268 -810 2332 -1835 3008 -209
138 -287 182 -524 299 -850 419 -1915 621 -3051 579z"/>
<path d="M38920 26579 c-806 -44 -1565 -205 -2245 -473 -192 -76 -588 -268
-775 -376 -288 -166 -603 -390 -851 -604 -165 -141 -455 -434 -578 -581 -733
-881 -1111 -1870 -1191 -3120 -21 -335 -11 -783 25 -1135 144 -1382 778 -2579
1820 -3433 928 -762 2104 -1224 3460 -1361 315 -32 501 -40 910 -40 503 0 784
18 1215 80 1890 269 3444 1292 4269 2811 325 598 518 1258 598 2043 22 218 25
964 5 1180 -71 763 -232 1370 -517 1955 -397 812 -1016 1506 -1810 2028 -863
566 -1856 897 -3010 1001 -384 35 -949 46 -1325 25z"/>
</g>
</svg>
